<?xml version="1.0" encoding="iso-8859-1"?>
<!-- Generator: Adobe Illustrator 17.0.0, SVG Export Plug-In . SVG Version: 6.00 Build 0)  -->
<!DOCTYPE svg PUBLIC "-//W3C//DTD SVG 1.1//EN" "http://www.w3.org/Graphics/SVG/1.1/DTD/svg11.dtd">
<svg version="1.1" id="Layer_1" xmlns="http://www.w3.org/2000/svg" xmlns:xlink="http://www.w3.org/1999/xlink" x="0px" y="0px"
	 width="2610.03px" height="510px" viewBox="0 0 2610.03 510" enable-background="new 0 0 2610.03 510" xml:space="preserve">
<g>
	<path fill="#FFFFFF" stroke="#FFFFFF" d="M829.594,168.437v186.2h-42.351v-231c0-8.165,2.04-14.64,6.125-19.425
		c4.08-4.78,9.625-7.175,16.625-7.175c3.265,0,6.415,0.7,9.45,2.1c3.029,1.4,6.18,3.735,9.45,7l179.55,178.15v-186.2h42.35v233.1
		c0,8.4-2.045,14.936-6.125,19.6c-4.085,4.665-9.395,7-15.925,7c-7.235,0-14-3.15-20.3-9.45L829.594,168.437z"/>
	<path fill="#FFFFFF" stroke="#FFFFFF" d="M1359.139,354.637l-38.15-64.05h-120.4l21-36.05h78.051l-56.7-95.2l-115.5,195.3h-50.75
		l146.3-243.6c2.564-4.43,5.6-7.93,9.1-10.5c3.5-2.565,7.7-3.85,12.601-3.85c4.899,0,9.04,1.285,12.425,3.85
		c3.38,2.57,6.354,6.07,8.925,10.5l146.65,243.6H1359.139z"/>
	<path fill="#FFFFFF" stroke="#FFFFFF" d="M1476.389,354.637v-210h-96.6v-44.45h237.649v44.45h-96.6v210H1476.389z"/>
	<path fill="#FFFFFF" stroke="#FFFFFF" d="M1757.084,354.637c-17.735,0-34.125-3.325-49.175-9.975s-28.12-15.75-39.2-27.3
		c-11.085-11.55-19.72-25.255-25.899-41.125c-6.186-15.865-9.275-33.015-9.275-51.45c0-18.665,3.09-35.7,9.275-51.1
		c6.18-15.4,14.814-28.525,25.899-39.375c11.08-10.85,24.15-19.25,39.2-25.2c15.05-5.95,31.439-8.925,49.175-8.925h61.95
		c18.43,0,35.29,3.035,50.575,9.1c15.279,6.07,28.404,14.585,39.375,25.55c10.965,10.97,19.479,24.095,25.55,39.375
		c6.064,15.285,9.1,32.145,9.1,50.575c0,18.435-3.095,35.585-9.274,51.45c-6.186,15.87-14.82,29.575-25.9,41.125
		c-11.085,11.55-24.21,20.65-39.375,27.3c-15.17,6.65-31.85,9.975-50.05,9.975H1757.084z M1819.034,310.187
		c11.665,0,22.4-2.1,32.2-6.3s18.255-9.975,25.375-17.325c7.114-7.35,12.654-16.154,16.625-26.425
		c3.965-10.265,5.95-21.35,5.95-33.25s-1.985-22.925-5.95-33.075c-3.971-10.15-9.511-18.84-16.625-26.075
		c-7.12-7.23-15.575-12.89-25.375-16.975c-9.8-4.08-20.535-6.125-32.2-6.125h-61.95c-11.435,0-21.995,2.045-31.675,6.125
		c-9.686,4.085-18.025,9.745-25.025,16.975c-7,7.235-12.484,15.87-16.449,25.9c-3.971,10.035-5.95,21.12-5.95,33.25
		c0,11.9,1.979,22.985,5.95,33.25c3.965,10.271,9.449,19.075,16.449,26.425c7,7.35,15.34,13.125,25.025,17.325
		c9.68,4.2,20.24,6.3,31.675,6.3H1819.034z"/>
	<path fill="#FFFFFF" stroke="#FFFFFF" d="M2282.433,354.637l-48.65-178.85l-72.1,165.55c-2.57,5.37-5.66,9.51-9.275,12.425
		c-3.621,2.915-8.109,4.375-13.475,4.375c-10.5,0-18.086-5.6-22.751-16.8l-71.75-165.55l-48.649,178.85h-43.75l65.45-239.4
		c3.029-12.13,10.379-18.2,22.05-18.2c4.665,0,9.04,1.285,13.125,3.85c4.079,2.57,7.175,6.3,9.274,11.2l78.401,179.9l78.398-179.9
		c4.201-10.03,11.316-15.05,21.352-15.05c10.729,0,17.85,6.07,21.35,18.2l65.1,239.4H2282.433z"/>
	<path fill="#FFFFFF" stroke="#FFFFFF" d="M2425.582,354.637v-96.6l-135.101-157.85h59.851l99.05,117.25l99.399-117.25h56.7
		l-135.45,157.85v96.6H2425.582z"/>
</g>
<path fill="none" stroke="#EF3F3F" stroke-width="50" stroke-miterlimit="10" d="M460.861,341.736
	c-30.62,67.552-94.6,118.06-173.588,127.93C166.445,484.765,56.254,399.055,41.155,278.227S111.766,47.209,232.594,32.11
	c66.668-8.331,130.097,14.028,176.102,56.042"/>
<path fill="none" stroke="#EF3F3F" stroke-width="50" stroke-miterlimit="10" d="M365.231,297.337
	c-15.561,37.033-49.439,65.341-92.054,71.874c-65.188,9.993-126.135-34.751-136.128-99.94
	c-9.993-65.188,34.751-126.135,99.94-136.129c35.968-5.514,70.645,5.636,96.184,27.69"/>
<rect x="275.729" y="221.109" fill="#EC5958" width="66" height="66"/>
<path fill="#FFFFFF" d="M708,354.637h53.667L613,109.875c0,0-6.375-12.625-20-12.625c-13.75,0-19.378,11.846-19.378,11.846
	l-124.8,205.742l48.939,0.222l93.365-156.935l58.055,97.371L570.167,255L550,290l119.833-0.167L708,354.637z"/>
<g>
</g>
<g>
</g>
<g>
</g>
<g>
</g>
<g>
</g>
<g>
</g>
</svg>
